<?xml version="1.0" standalone="no"?>
<!DOCTYPE svg PUBLIC "-//W3C//DTD SVG 20010904//EN"
 "http://www.w3.org/TR/2001/REC-SVG-20010904/DTD/svg10.dtd">
<svg version="1.0" xmlns="http://www.w3.org/2000/svg"
 width="453.000000pt" height="453.000000pt" viewBox="0 0 453.000000 453.000000"
 preserveAspectRatio="xMidYMid meet">

<g transform="translate(0.000000,453.000000) scale(0.100000,-0.100000)"
fill="#000000" stroke="none">
<path d="M1850 4320 c-15 -15 -20 -33 -20 -72 0 -28 -3 -49 -6 -45 -3 3 -19 1
-35 -5 -31 -11 -64 -60 -55 -84 3 -8 -4 -19 -15 -25 -24 -12 -53 -75 -43 -91
4 -5 1 -27 -6 -47 -10 -32 -10 -43 5 -70 9 -18 32 -42 51 -53 19 -11 34 -22
34 -24 0 -3 -9 -23 -20 -44 -36 -71 -53 -166 -47 -269 6 -94 5 -95 -24 -128
-55 -63 -51 -133 10 -195 29 -28 40 -49 44 -80 10 -74 77 -111 127 -70 l23 19
29 -57 c33 -67 138 -173 162 -164 28 11 18 29 -54 93 -39 34 -89 89 -112 122
-40 56 -68 73 -83 49 -12 -19 -25 1 -25 37 0 31 -8 44 -50 83 -59 54 -64 82
-23 130 24 29 31 32 66 27 21 -3 48 -14 59 -24 21 -18 21 -18 5 12 -8 17 -27
37 -40 44 -45 24 -61 185 -32 322 9 40 17 74 18 76 2 1 33 0 70 -4 66 -6 67
-6 73 -39 11 -60 -5 -118 -52 -192 -50 -79 -63 -127 -41 -156 21 -28 53 -13
60 28 3 19 20 67 37 107 29 65 32 79 27 143 -3 39 -7 79 -9 89 -3 15 20 24
152 59 154 40 237 50 295 35 l30 -7 -30 17 c-52 29 -173 29 -305 -1 -161 -36
-198 -40 -263 -26 -58 12 -117 50 -117 76 0 8 9 14 20 14 24 0 27 32 5 50 -30
25 -14 63 30 72 16 3 20 11 20 48 0 43 1 45 30 46 48 1 55 10 55 74 0 32 5 62
10 65 6 4 37 -11 70 -33 82 -55 138 -67 274 -56 61 4 165 8 231 8 104 1 125
-2 160 -21 77 -41 108 -93 120 -200 7 -65 21 -88 44 -73 11 6 13 24 8 76 -13
134 -84 225 -205 260 -48 14 -77 15 -182 8 -69 -5 -174 -9 -235 -9 -117 0
-135 6 -224 70 -41 30 -74 32 -101 5z"/>
<path d="M2029 4147 c15 -18 81 -24 81 -7 0 6 -13 10 -29 10 -16 0 -38 3 -48
7 -16 6 -16 5 -4 -10z"/>
<path d="M2600 4115 c0 -10 74 -105 82 -105 13 0 9 29 -8 56 -16 23 -74 62
-74 49z"/>
<path d="M1954 4092 c22 -36 142 -60 168 -34 14 14 2 18 -72 26 -30 3 -66 8
-79 12 -17 5 -22 4 -17 -4z"/>
<path d="M1880 4012 c0 -16 80 -50 136 -57 36 -5 62 -2 88 9 63 26 41 41 -60
41 -49 0 -106 4 -126 9 -25 5 -38 5 -38 -2z"/>
<path d="M2583 3973 c14 -16 33 -45 42 -65 18 -44 45 -51 45 -12 0 31 -68 104
-96 104 -15 0 -14 -4 9 -27z"/>
<path d="M2461 3951 c24 -16 58 -48 74 -70 31 -43 45 -51 45 -27 0 25 -51 76
-101 101 -65 33 -72 31 -18 -4z"/>
<path d="M2836 3931 c-14 -21 -37 -48 -53 -59 -27 -21 -27 -21 -5 -22 13 0 37
7 55 16 l32 16 -29 -31 c-17 -17 -38 -31 -48 -31 -17 0 -18 -9 -13 -152 3 -84
13 -236 22 -337 17 -208 14 -253 -25 -331 -35 -69 -181 -219 -243 -248 -66
-32 -160 -30 -214 3 -77 47 -83 49 -100 35 -34 -28 -3 -85 68 -123 33 -17 61
-22 129 -23 59 -1 94 -7 108 -17 22 -15 22 -16 -26 -51 -27 -19 -77 -51 -111
-71 -86 -51 -97 -65 -90 -117 4 -32 1 -49 -11 -66 l-17 -22 -45 45 c-43 44
-44 47 -41 98 10 131 4 143 -86 171 -32 10 -70 25 -85 32 -26 13 -26 15 -14
46 22 52 29 117 16 133 -20 24 -40 6 -40 -35 0 -30 -15 -95 -26 -108 -1 -2
-16 4 -33 12 -16 9 -36 16 -44 16 -7 0 -44 -29 -81 -65 -58 -54 -76 -65 -120
-74 -28 -5 -91 -17 -140 -26 -100 -18 -209 -65 -273 -116 -112 -91 -227 -307
-322 -603 -68 -212 -137 -564 -129 -656 3 -25 -1 -79 -8 -120 -16 -93 -18
-271 -3 -325 7 -24 27 -55 49 -76 70 -67 181 -75 329 -24 41 14 76 23 78 21 3
-2 0 -21 -6 -43 -9 -32 -8 -40 6 -50 28 -21 42 1 36 60 l-5 52 164 83 c156 79
376 209 418 247 11 10 20 29 20 42 0 30 30 44 175 78 145 34 181 52 252 124
33 33 65 61 69 61 5 0 18 -19 29 -42 30 -62 68 -80 191 -89 56 -4 119 -4 139
1 77 17 151 127 181 270 16 74 15 260 -1 302 -12 31 -151 59 -280 57 -137 -2
-152 -14 -25 -21 147 -8 256 -32 271 -60 7 -14 10 -65 6 -147 -5 -140 -23
-208 -77 -286 -48 -70 -73 -78 -201 -70 -120 8 -149 21 -167 75 -9 26 -8 31 8
40 11 6 24 29 30 52 7 23 19 52 27 65 10 15 13 32 8 51 -3 15 -6 48 -5 74 1
40 -4 53 -27 75 -34 34 -40 91 -12 111 42 29 11 62 -81 85 -68 18 -99 8 -139
-42 -16 -20 -46 -42 -67 -50 -76 -27 -122 -69 -193 -175 -69 -103 -134 -171
-152 -160 -32 19 -73 11 -155 -33 -48 -26 -139 -70 -203 -100 -95 -43 -118
-50 -129 -40 -10 11 -10 20 3 51 12 28 17 86 20 234 4 212 -4 202 -25 -28 -15
-158 -23 -196 -51 -229 -20 -24 -21 -25 -95 -12 -42 7 -78 10 -81 8 -2 -3 34
-18 81 -33 47 -16 83 -31 78 -35 -4 -3 -41 -19 -82 -34 -105 -40 -70 -43 52
-5 137 43 274 98 409 165 61 31 113 54 115 52 2 -2 -1 -30 -6 -63 -17 -101
-13 -155 16 -212 14 -29 24 -59 21 -66 -15 -39 -483 -300 -637 -357 -194 -70
-314 -39 -340 88 -16 77 -9 351 9 362 9 6 22 64 37 172 55 384 197 805 338
1004 76 105 173 163 354 212 52 13 114 33 138 44 56 24 62 20 154 -88 83 -98
121 -125 229 -162 131 -45 111 -7 -32 64 -70 35 -91 51 -149 120 -94 113 -96
117 -65 154 14 17 27 36 29 43 3 9 19 0 47 -25 40 -36 152 -97 201 -110 20 -5
21 -10 15 -85 -8 -87 3 -123 49 -159 40 -32 66 -84 66 -133 1 -62 82 -304 104
-308 26 -5 20 46 -19 162 -44 133 -47 204 -9 259 27 41 31 58 20 98 -7 23 -2
29 42 58 27 17 77 60 110 95 59 61 75 97 51 112 -7 4 7 17 33 33 24 14 61 39
81 55 56 43 156 172 190 244 25 53 29 74 29 145 0 93 -32 339 -68 531 -13 71
-24 132 -24 136 0 4 17 10 38 14 44 7 88 47 78 72 -3 9 -13 14 -21 11 -11 -5
-12 -1 -5 18 10 26 4 55 -11 55 -5 0 -20 -17 -33 -39z m-455 -2132 c19 -7 38
-16 44 -21 5 -5 -5 -3 -23 3 -19 6 -54 9 -80 6 -42 -5 -45 -4 -27 9 23 17 41
18 86 3z m23 -79 c15 -15 -2 -39 -31 -46 -131 -29 -137 -44 -20 -44 91 0 107
-8 107 -51 0 -30 -6 -33 -85 -44 -27 -4 -54 -9 -59 -12 -19 -12 20 -21 73 -16
72 5 89 -5 72 -45 -12 -30 -35 -42 -78 -42 -38 0 -25 -17 18 -24 35 -6 39 -9
29 -21 -7 -8 -30 -20 -52 -26 -28 -7 -56 -27 -92 -65 -65 -71 -100 -88 -248
-125 -66 -16 -133 -36 -149 -44 -37 -20 -36 -20 -59 18 -17 27 -20 50 -20 140
0 89 3 107 15 107 27 0 105 42 136 72 16 16 49 60 73 96 52 81 88 117 140 144
77 39 201 54 230 28z"/>
<path d="M2124 1538 c14 -137 26 -168 62 -154 12 5 15 16 11 49 -7 63 -43 151
-62 155 -15 3 -16 -3 -11 -50z"/>
<path d="M2586 3585 c-8 -21 10 -45 33 -45 9 0 44 -10 78 -22 35 -12 65 -19
69 -16 11 12 -22 49 -63 69 -61 30 -108 35 -117 14z"/>
<path d="M2266 3575 c-40 -14 -125 -89 -114 -101 4 -3 26 6 50 20 25 15 68 28
102 32 60 7 78 23 56 49 -15 18 -43 18 -94 0z"/>
<path d="M2257 3454 c-7 -8 -10 -114 -3 -114 2 0 11 -3 20 -6 20 -8 48 48 44
89 -2 26 -8 33 -28 35 -14 2 -29 0 -33 -4z"/>
<path d="M2644 3436 c-22 -35 -4 -86 32 -86 26 0 38 27 32 76 -4 40 -40 45
-64 10z"/>
<path d="M2540 3304 c0 -3 11 -20 25 -36 29 -34 29 -55 2 -72 -14 -9 -26 -6
-57 12 -43 24 -60 22 -60 -6 0 -25 51 -52 98 -52 32 0 45 6 61 26 28 36 27 79
-4 109 -21 22 -65 35 -65 19z"/>
<path d="M1758 3285 c-3 -3 19 -31 48 -62 35 -36 59 -53 69 -49 39 15 26 70
-25 99 -27 16 -81 23 -92 12z"/>
<path d="M2412 3048 c-7 -7 -12 -17 -12 -24 0 -20 56 -61 94 -68 44 -8 107 21
124 59 24 52 12 58 -44 20 -20 -14 -45 -25 -55 -25 -9 0 -31 11 -47 25 -34 28
-43 30 -60 13z"/>
<path d="M2577 2643 c12 -36 55 -83 74 -83 31 0 22 23 -25 63 -50 42 -58 45
-49 20z"/>
<path d="M2620 2521 c-5 -11 -10 -26 -10 -34 0 -22 -96 -164 -119 -176 -27
-15 -64 -14 -97 4 -36 19 -43 11 -13 -14 35 -30 85 -37 125 -18 35 17 116 118
141 175 17 40 19 39 152 -26 194 -94 281 -223 346 -512 41 -179 153 -779 170
-903 8 -66 15 -192 15 -287 0 -174 6 -199 38 -166 24 24 23 297 -2 461 -31
204 -185 955 -216 1055 -47 151 -124 262 -231 330 -25 16 -92 45 -150 64 -69
22 -105 39 -107 50 -5 22 -29 20 -42 -3z"/>
<path d="M1769 1765 c-36 -7 -109 -19 -162 -25 -93 -12 -132 -30 -64 -30 35 0
267 27 289 34 7 2 25 7 41 10 15 4 27 11 27 16 0 13 -50 11 -131 -5z"/>
<path d="M3017 1582 c-61 -135 -83 -335 -74 -677 6 -226 21 -345 45 -353 8 -2
11 105 12 394 1 400 5 476 39 617 10 42 15 77 11 77 -4 0 -19 -26 -33 -58z"/>
<path d="M2357 1173 c-3 -4 -11 -113 -18 -241 -10 -185 -10 -235 0 -245 20
-20 39 16 47 90 9 91 0 381 -13 394 -6 6 -13 7 -16 2z"/>
<path d="M994 1118 c-69 -72 -94 -107 -94 -132 0 -16 20 0 90 69 50 49 90 95
90 102 0 28 -38 10 -86 -39z"/>
</g>
</svg>
